<svg xmlns="http://www.w3.org/2000/svg" viewBox="0 0 32 32"><rect width="32" height="32" rx="6" fill="#8c684f"/><path d="M7 26V13c0-5 4-8 9-8s9 3 9 8v13Z" fill="#c8895f" stroke="#6b4734" stroke-width="1.5"/><path d="M10 26v-7c0-4 2-6 6-6s6 2 6 6v7Z" fill="#472f29"/><path d="M12 23c1-4 7-4 8 0-1 3-2 4-4 4s-3-1-4-4Z" fill="#f0903e"/><path d="M20 5V1h4v7" fill="none" stroke="#6b4734" stroke-width="2"/><path d="M22 1c3 1 4 3 3 6" fill="none" stroke="#d8d8d8" stroke-width="1.5" opacity=".7"/><path d="M4 27h24" stroke="#e2b287" stroke-width="2"/></svg>